<?xml version="1.0" encoding="utf-8"?>
<!-- Generator: Adobe Illustrator 16.0.0, SVG Export Plug-In . SVG Version: 6.00 Build 0)  -->
<!DOCTYPE svg PUBLIC "-//W3C//DTD SVG 1.1//EN" "http://www.w3.org/Graphics/SVG/1.1/DTD/svg11.dtd">
<svg version="1.1" id="Calque_1" xmlns="http://www.w3.org/2000/svg" xmlns:xlink="http://www.w3.org/1999/xlink" x="0px" y="0px"
	 width="231.167px" height="43.996px" viewBox="-35.603 -9.273 231.167 43.996"
	 enable-background="new -35.603 -9.273 231.167 43.996" xml:space="preserve">
<g>
	<g>
		<g>
			<defs>
				<rect id="SVGID_1_" x="-18.603" y="-4.274" width="197.17" height="34"/>
			</defs>
			<clipPath id="SVGID_2_">
				<use xlink:href="#SVGID_1_"  overflow="visible"/>
			</clipPath>
			<path clip-path="url(#SVGID_2_)" fill="#ED1C24" d="M107.177,7.69c-2.776,0-5.028,2.261-5.028,5.037
				c0,2.771,2.252,5.031,5.028,5.031c2.775,0,5.033-2.258,5.033-5.031C112.21,9.952,109.952,7.69,107.177,7.69"/>
		</g>
		<rect x="-18.603" y="-4.274" fill="none" width="197.17" height="34"/>
		<path fill="#ED1C24" d="M161.566-4.273c-5.563,0-10.498,2.671-13.598,6.796c-3.097-4.125-8.037-6.796-13.596-6.796
			c-5.56,0-10.504,2.671-13.6,6.798c-1.27-1.685-2.844-3.132-4.636-4.249l-0.024,14.45c0,4.931-4.013,8.942-8.939,8.942
			c-4.935,0-8.949-4.01-8.949-8.942c0-4.932,4.015-8.944,8.949-8.944c1.65,0,3.26,0.456,4.659,1.322l0.363,0.219l0.011-8.839
			c-1.594-0.49-3.282-0.757-5.029-0.757c-5.562,0-10.494,2.671-13.604,6.796c-3.094-4.125-8.035-6.796-13.594-6.796
			c-5.56,0-10.495,2.671-13.599,6.796c-3.101-4.125-8.036-6.796-13.6-6.796c-5.558,0-10.495,2.671-13.589,6.796
			c-3.109-4.125-8.049-6.796-13.6-6.796c-5.568,0-10.499,2.671-13.599,6.796C8.887-1.602,3.957-4.273-1.612-4.273
			c-9.38,0-16.997,7.611-16.997,17c0,9.381,7.616,16.996,16.997,16.996c5.569,0,10.499-2.673,13.604-6.799
			c3.101,4.126,8.031,6.799,13.599,6.799c5.551,0,10.489-2.673,13.6-6.799c3.094,4.126,8.032,6.799,13.589,6.799
			c5.563,0,10.499-2.673,13.6-6.799c3.104,4.126,8.039,6.799,13.599,6.799c5.559,0,10.499-2.673,13.594-6.799
			c3.11,4.126,8.04,6.799,13.604,6.799c5.559,0,10.494-2.673,13.596-6.799c3.095,4.126,8.04,6.799,13.6,6.799
			c5.559,0,10.496-2.673,13.596-6.799c3.098,4.126,8.033,6.799,13.598,6.799c9.39,0,16.998-7.612,16.998-16.996
			C178.564,3.338,170.956-4.273,161.566-4.273"/>
		<g>
			<defs>
				<rect id="SVGID_3_" x="-18.603" y="-4.274" width="197.17" height="34"/>
			</defs>
			<clipPath id="SVGID_4_">
				<use xlink:href="#SVGID_3_"  overflow="visible"/>
			</clipPath>
			<path clip-path="url(#SVGID_4_)" fill="#FFFFFF" d="M111.838,5.103c-1.401-0.865-3.014-1.32-4.661-1.32
				c-4.936,0-8.949,4.012-8.949,8.942c0,4.934,4.014,8.944,8.949,8.944c4.927,0,8.935-4.01,8.935-8.944l0.028-14.444
				c-1.228-0.757-2.54-1.366-3.93-1.796l-0.012,8.841L111.838,5.103z M107.177,17.761c-2.776,0-5.028-2.261-5.028-5.036
				c0-2.773,2.252-5.031,5.028-5.031c2.775,0,5.033,2.258,5.033,5.031C112.21,15.497,109.952,17.761,107.177,17.761"/>
		</g>
		<g>
			<path fill="#FFFFFF" d="M134.374,21.669c-4.931,0-8.949-4.01-8.949-8.942c0-4.935,4.019-8.948,8.949-8.948
				s8.943,4.013,8.943,8.948C143.317,17.657,139.305,21.669,134.374,21.669 M134.374,7.69c-2.775,0-5.033,2.261-5.033,5.037
				c0,2.771,2.258,5.031,5.033,5.031c2.778,0,5.028-2.258,5.028-5.031C139.402,9.952,137.152,7.69,134.374,7.69"/>
		</g>
		<g>
			<path fill="#FFFFFF" d="M161.572,21.669c-4.938,0-8.95-4.01-8.95-8.942c0-4.935,4.012-8.948,8.95-8.948
				c4.931,0,8.938,4.013,8.938,8.948C170.51,17.657,166.503,21.669,161.572,21.669 M161.572,7.69c-2.776,0-5.034,2.261-5.034,5.037
				c0,2.771,2.258,5.031,5.034,5.031c2.77,0,5.027-2.258,5.027-5.031C166.6,9.952,164.342,7.69,161.572,7.69"/>
		</g>
		<g>
			<path fill="#FFFFFF" d="M25.602,21.669c-4.936,0-8.948-4.01-8.948-8.942c0-4.935,4.013-8.948,8.948-8.948
				c4.926,0,8.935,4.013,8.935,8.948C34.537,17.657,30.528,21.669,25.602,21.669 M25.602,7.69c-2.775,0-5.034,2.261-5.034,5.037
				c0,2.771,2.257,5.031,5.034,5.031c2.771,0,5.024-2.258,5.024-5.031C30.626,9.952,28.373,7.69,25.602,7.69"/>
		</g>
		<g>
			<path fill="#FFFFFF" d="M-1.595,21.669c-4.931,0-8.948-4.01-8.948-8.942c0-4.935,4.018-8.948,8.948-8.948
				c4.926,0,8.945,4.013,8.945,8.948C7.349,17.657,3.331,21.669-1.595,21.669 M-1.595,7.69c-2.775,0-5.038,2.261-5.038,5.037
				c0,2.771,2.263,5.031,5.038,5.031c2.774,0,5.032-2.258,5.032-5.031C3.437,9.952,1.179,7.69-1.595,7.69"/>
		</g>
		<path fill="#FFFFFF" d="M80.291,21.677c-0.286,0-0.556-0.012-0.814-0.03l-0.21-0.018l-0.286-0.022
			c-4.531-0.503-7.941-4.318-7.941-8.881c0-4.937,4.008-8.951,8.948-8.951c4.927,0,8.944,4.015,8.944,8.951
			c0,0.599-0.048,1.102-0.169,1.691L75.26,14.407l0.273,0.654c0.721,1.362,1.994,2.311,3.486,2.596
			c0.44,0.081,0.891,0.126,1.344,0.126l0.218-0.006c1.305-0.039,2.539-0.487,3.381-1.24l0.114-0.1l3.636,1.948l-0.169,0.191
			c-1.635,1.974-3.969,3.011-6.943,3.088C80.491,21.671,80.398,21.677,80.291,21.677 M79.988,7.693c-2.067,0-3.897,1.231-4.663,3.14
			l-0.022,0.054l9.348,0.011l-0.019-0.053C83.872,8.927,82.048,7.693,79.988,7.693"/>
		<path fill="#FFFFFF" d="M44.376,21.22l0.008-8.492l0.013-0.49c0.263-4.742,4.188-8.453,8.932-8.453
			c3.402,0,6.462,1.892,7.991,4.941l-3.452,1.839c-0.828-1.742-2.611-2.869-4.539-2.869c-2.771,0-5.025,2.259-5.025,5.033
			l-0.004,8.487h-3.923V21.22z"/>
	</g>
</g>
</svg>
